<svg width="50" height="50" viewBox="0 0 50 50" fill="none" xmlns="http://www.w3.org/2000/svg">
<path d="M25.002 18.7498C23.3444 18.7498 21.7547 19.4083 20.5826 20.5804C19.4105 21.7525 18.752 23.3422 18.752 24.9998C18.752 26.6574 19.4105 28.2472 20.5826 29.4193C21.7547 30.5914 23.3444 31.2498 25.002 31.2498C26.6596 31.2498 28.2494 30.5914 29.4215 29.4193C30.5936 28.2472 31.252 26.6574 31.252 24.9998C31.252 23.3422 30.5936 21.7525 29.4215 20.5804C28.2494 19.4083 26.6596 18.7498 25.002 18.7498ZM25.002 14.5832C27.7647 14.5832 30.4142 15.6806 32.3677 17.6341C34.3212 19.5876 35.4187 22.2372 35.4187 24.9998C35.4187 27.7625 34.3212 30.412 32.3677 32.3655C30.4142 34.319 27.7647 35.4165 25.002 35.4165C22.2394 35.4165 19.5899 34.319 17.6363 32.3655C15.6828 30.412 14.5854 27.7625 14.5854 24.9998C14.5854 22.2372 15.6828 19.5876 17.6363 17.6341C19.5899 15.6806 22.2394 14.5832 25.002 14.5832ZM38.5437 14.0623C38.5437 14.753 38.2693 15.4154 37.781 15.9038C37.2926 16.3921 36.6302 16.6665 35.9395 16.6665C35.2489 16.6665 34.5865 16.3921 34.0981 15.9038C33.6097 15.4154 33.3354 14.753 33.3354 14.0623C33.3354 13.3717 33.6097 12.7093 34.0981 12.2209C34.5865 11.7325 35.2489 11.4582 35.9395 11.4582C36.6302 11.4582 37.2926 11.7325 37.781 12.2209C38.2693 12.7093 38.5437 13.3717 38.5437 14.0623ZM25.002 8.33317C19.8479 8.33317 19.0062 8.34775 16.6083 8.454C14.975 8.53109 13.8791 8.74984 12.8625 9.14567C12.0117 9.45804 11.2425 9.95872 10.6125 10.6103C9.96039 11.2403 9.45903 12.0094 9.14579 12.8603C8.74996 13.8811 8.53121 14.9748 8.45621 16.6061C8.34788 18.9061 8.33329 19.7103 8.33329 24.9998C8.33329 30.1561 8.34788 30.9957 8.45413 33.3936C8.53121 35.0248 8.74996 36.1228 9.14371 37.1373C9.49788 38.0436 9.91454 38.6957 10.6062 39.3873C11.3083 40.0873 11.9604 40.5061 12.8562 40.8519C13.8854 41.2498 14.9812 41.4707 16.6062 41.5457C18.9062 41.654 19.7104 41.6665 25 41.6665C30.1562 41.6665 30.9958 41.6519 33.3937 41.5457C35.0229 41.4686 36.1187 41.2498 37.1375 40.8561C37.9875 40.5422 38.7563 40.0417 39.3875 39.3915C40.0895 38.6915 40.5083 38.0394 40.8541 37.1415C41.25 36.1165 41.4708 35.0207 41.5458 33.3915C41.6541 31.0936 41.6666 30.2873 41.6666 24.9998C41.6666 19.8457 41.652 19.004 41.5458 16.6061C41.4687 14.9769 41.2479 13.8769 40.8541 12.8603C40.5401 12.0103 40.0396 11.2415 39.3895 10.6103C38.7598 9.95785 37.9906 9.45644 37.1395 9.14359C36.1187 8.74775 35.0229 8.529 33.3937 8.454C31.0958 8.34567 30.2916 8.33317 25 8.33317M25 4.1665C30.6604 4.1665 31.3666 4.18734 33.5895 4.2915C35.8062 4.39567 37.3187 4.74359 38.6458 5.26025C40.0208 5.78942 41.1791 6.50609 42.3375 7.66234C43.3968 8.70379 44.2165 9.96356 44.7395 11.354C45.2541 12.6811 45.6041 14.1936 45.7083 16.4123C45.8062 18.6332 45.8333 19.3394 45.8333 24.9998C45.8333 30.6603 45.8125 31.3665 45.7083 33.5873C45.6041 35.8061 45.2541 37.3165 44.7395 38.6457C44.218 40.0368 43.3981 41.2969 42.3375 42.3373C41.2957 43.3963 40.036 44.216 38.6458 44.7394C37.3187 45.254 35.8062 45.604 33.5895 45.7082C31.3666 45.8061 30.6604 45.8332 25 45.8332C19.3395 45.8332 18.6333 45.8123 16.4104 45.7082C14.1937 45.604 12.6833 45.254 11.3541 44.7394C9.96314 44.2175 8.70314 43.3976 7.66246 42.3373C6.60294 41.296 5.78321 40.0362 5.26038 38.6457C4.74371 37.3186 4.39579 35.8061 4.29163 33.5873C4.19163 31.3665 4.16663 30.6603 4.16663 24.9998C4.16663 19.3394 4.18746 18.6332 4.29163 16.4123C4.39579 14.1936 4.74371 12.6832 5.26038 11.354C5.7817 9.96271 6.60163 8.70259 7.66246 7.66234C8.70344 6.6024 9.96335 5.78261 11.3541 5.26025C12.6812 4.74359 14.1916 4.39567 16.4104 4.2915C18.6354 4.19359 19.3416 4.1665 25.002 4.1665" fill="white"/>
</svg>
