<svg width="50" height="50" viewBox="0 0 50 50" fill="none" xmlns="http://www.w3.org/2000/svg">
<path d="M39.6875 10.2291C37.7775 8.29981 35.5025 6.7701 32.9951 5.72923C30.4877 4.68837 27.7982 4.15717 25.0834 4.16663C13.7084 4.16663 4.43754 13.4375 4.43754 24.8125C4.43754 28.4583 5.39587 32 7.18754 35.125L4.27087 45.8333L15.2084 42.9583C18.2292 44.6041 21.625 45.4791 25.0834 45.4791C36.4584 45.4791 45.7292 36.2083 45.7292 24.8333C45.7292 19.3125 43.5834 14.125 39.6875 10.2291ZM25.0834 41.9791C22 41.9791 18.9792 41.1458 16.3334 39.5833L15.7084 39.2083L9.20837 40.9166L10.9375 34.5833L10.5209 33.9375C8.80785 31.202 7.89825 28.04 7.89587 24.8125C7.89587 15.3541 15.6042 7.64579 25.0625 7.64579C29.6459 7.64579 33.9584 9.43746 37.1875 12.6875C38.7865 14.2791 40.0536 16.1722 40.9154 18.2571C41.7773 20.342 42.2168 22.5773 42.2084 24.8333C42.25 34.2916 34.5417 41.9791 25.0834 41.9791ZM34.5 29.1458C33.9792 28.8958 31.4375 27.6458 30.9792 27.4583C30.5 27.2916 30.1667 27.2083 29.8125 27.7083C29.4584 28.2291 28.4792 29.3958 28.1875 29.7291C27.8959 30.0833 27.5834 30.125 27.0625 29.8541C26.5417 29.6041 24.875 29.0416 22.9167 27.2916C21.375 25.9166 20.3542 24.2291 20.0417 23.7083C19.75 23.1875 20 22.9166 20.2709 22.6458C20.5 22.4166 20.7917 22.0416 21.0417 21.75C21.2917 21.4583 21.3959 21.2291 21.5625 20.8958C21.7292 20.5416 21.6459 20.25 21.5209 20C21.3959 19.75 20.3542 17.2083 19.9375 16.1666C19.5209 15.1666 19.0834 15.2916 18.7709 15.2708H17.7709C17.4167 15.2708 16.875 15.3958 16.3959 15.9166C15.9375 16.4375 14.6042 17.6875 14.6042 20.2291C14.6042 22.7708 16.4584 25.2291 16.7084 25.5625C16.9584 25.9166 20.3542 31.125 25.5209 33.3541C26.75 33.8958 27.7084 34.2083 28.4584 34.4375C29.6875 34.8333 30.8125 34.7708 31.7084 34.6458C32.7084 34.5 34.7709 33.3958 35.1875 32.1875C35.625 30.9791 35.625 29.9583 35.4792 29.7291C35.3334 29.5 35.0209 29.3958 34.5 29.1458Z" fill="white"/>
</svg>
